<mxfile host="app.diagrams.net" modified="2023-09-01T05:49:22.053Z" agent="Mozilla/5.0 (Windows NT 10.0; Win64; x64) AppleWebKit/537.36 (KHTML, like Gecko) Chrome/115.0.0.0 Safari/537.36 Edg/115.0.1901.203" version="21.7.1" etag="LTgSVSDcO6wvICQlYcbv" type="github">
  <diagram name="Page-1" id="5vChEKNpGhc4vIYKCd8I">
    <mxGraphModel>
      <root>
        <mxCell id="0" />
        <mxCell id="1" parent="0" />
      </root>
    </mxGraphModel>
  </diagram>
</mxfile>
